# xmcd
#
# Track frame offsets: 
#        150
#        14150
#        27852
#        44824
#        63105
#        75543
#        92122
#        105636
#        117285
#        130073
#        145311
#        160482
#        175723
#        192194
#        205708
#        219378
#
# Disc length: 3094 seconds
#
# Revision: 1
# Processed by: cddbd v1.5.2PL0 Copyright (c) Steve Scherf et al.
# Submitted via: ExactAudioCopyFreeDBPlugin 1.0
#
DISCID=de0c1410
DTITLE=Tom Astor - Alles klar - Kein Problem [CD 1 - Wilde Gefühle)
DYEAR=2008
DGENRE=Country
TTITLE0=Wilde Gefühle
TTITLE1=Ich geh' gern vergessene Strassen
TTITLE2=Hinter'm Horizont
TTITLE3=Tu einfach was ich will
TTITLE4=Hab' ich heut' schon gelebt
TTITLE5=No smoking
TTITLE6=Wenn es kein Morgen gibt
TTITLE7=Und dann packt mich der Blues
TTITLE8=Wir werden nicht älter, wir werden nur noch besser
TTITLE9=Ich glaub' immer an ein Wunder
TTITLE10=Ihr Kleid (Hilton Blues)
TTITLE11=Ja, dann bricht das Chaos aus, Hallelujah
TTITLE12=Ich brauch' ne Insel
TTITLE13=Lach mal laut über dich
TTITLE14=Alles klar, kein Problem
TTITLE15=To Daddy (Duett mit Dolly Parton)
EXTD=YEAR: 2008
EXTT0=
EXTT1=
EXTT2=
EXTT3=
EXTT4=
EXTT5=
EXTT6=
EXTT7=
EXTT8=
EXTT9=
EXTT10=
EXTT11=
EXTT12=
EXTT13=
EXTT14=
EXTT15=
PLAYORDER=
